<svg width="25" height="25" viewBox="0 0 25 25" fill="none" xmlns="http://www.w3.org/2000/svg">
<path d="M17.4479 3.70837V2.08337C17.4479 1.65629 17.0937 1.30212 16.6666 1.30212C16.2395 1.30212 15.8854 1.65629 15.8854 2.08337V3.64587H9.11454V2.08337C9.11454 1.65629 8.76037 1.30212 8.33329 1.30212C7.9062 1.30212 7.55204 1.65629 7.55204 2.08337V3.70837C4.73954 3.96879 3.37495 5.64587 3.16662 8.13546C3.14579 8.43754 3.39579 8.68754 3.68745 8.68754H21.3125C21.6145 8.68754 21.8645 8.42712 21.8333 8.13546C21.625 5.64587 20.2604 3.96879 17.4479 3.70837Z" fill="#181C4E"/>
<path opacity="0.4" d="M20.8333 10.25C21.4062 10.25 21.875 10.7187 21.875 11.2917V17.7083C21.875 20.8333 20.3125 22.9167 16.6667 22.9167H8.33333C4.6875 22.9167 3.125 20.8333 3.125 17.7083V11.2917C3.125 10.7187 3.59375 10.25 4.16667 10.25H20.8333Z" fill="#181C4E"/>
<path d="M8.85417 15.6239C8.58333 15.6239 8.3125 15.5093 8.11458 15.3218C7.92708 15.1239 7.8125 14.8531 7.8125 14.5823C7.8125 14.3114 7.92708 14.0406 8.11458 13.8427C8.40625 13.551 8.86458 13.4573 9.25 13.6239C9.38542 13.676 9.5 13.7489 9.59375 13.8427C9.78125 14.0406 9.89583 14.3114 9.89583 14.5823C9.89583 14.8531 9.78125 15.1239 9.59375 15.3218C9.39583 15.5093 9.125 15.6239 8.85417 15.6239ZM12.5 15.6239C12.2292 15.6239 11.9583 15.5093 11.7604 15.3218C11.5729 15.1239 11.4583 14.8531 11.4583 14.5823C11.4583 14.3114 11.5729 14.0406 11.7604 13.8427C11.8542 13.7489 11.9687 13.676 12.1042 13.6239C12.4896 13.4573 12.9479 13.551 13.2396 13.8427C13.4271 14.0406 13.5417 14.3114 13.5417 14.5823C13.5417 14.8531 13.4271 15.1239 13.2396 15.3218L13.0833 15.4468C13.0208 15.4885 12.9583 15.5198 12.8958 15.5406C12.8333 15.5718 12.7708 15.5927 12.7083 15.6031C12.6354 15.6135 12.5729 15.6239 12.5 15.6239ZM16.1458 15.625C15.875 15.625 15.6042 15.5104 15.4062 15.3229C15.2187 15.125 15.1042 14.8541 15.1042 14.5833C15.1042 14.3125 15.2187 14.0416 15.4062 13.8437C15.5104 13.75 15.6146 13.677 15.75 13.625C15.9375 13.5416 16.1458 13.5208 16.3542 13.5625C16.4167 13.5729 16.4792 13.5937 16.5417 13.625C16.6042 13.6458 16.6667 13.677 16.7292 13.7187L16.8854 13.8437C17.0729 14.0416 17.1875 14.3125 17.1875 14.5833C17.1875 14.8541 17.0729 15.125 16.8854 15.3229L16.7292 15.4479C16.6667 15.4895 16.6042 15.5208 16.5417 15.5416C16.4792 15.5729 16.4167 15.5937 16.3542 15.6041C16.2812 15.6145 16.2083 15.625 16.1458 15.625ZM8.85417 19.2708C8.71875 19.2708 8.58333 19.2395 8.45833 19.1875C8.32292 19.1354 8.21875 19.0625 8.11458 18.9687C7.92708 18.7708 7.8125 18.5 7.8125 18.2291C7.8125 17.9583 7.92708 17.6875 8.11458 17.4895C8.21875 17.3958 8.32292 17.3229 8.45833 17.2708C8.64583 17.1875 8.85417 17.1666 9.0625 17.2083C9.125 17.2187 9.1875 17.2395 9.25 17.2708C9.3125 17.2916 9.375 17.3229 9.4375 17.3645L9.59375 17.4895C9.78125 17.6875 9.89583 17.9583 9.89583 18.2291C9.89583 18.5 9.78125 18.7708 9.59375 18.9687C9.54167 19.0104 9.48958 19.0625 9.4375 19.0937C9.375 19.1354 9.3125 19.1666 9.25 19.1875C9.1875 19.2187 9.125 19.2395 9.0625 19.25C8.98958 19.2604 8.92708 19.2708 8.85417 19.2708ZM12.5 19.2708C12.2292 19.2708 11.9583 19.1562 11.7604 18.9687C11.5729 18.7708 11.4583 18.5 11.4583 18.2291C11.4583 17.9583 11.5729 17.6875 11.7604 17.4895C12.1458 17.1041 12.8542 17.1041 13.2396 17.4895C13.4271 17.6875 13.5417 17.9583 13.5417 18.2291C13.5417 18.5 13.4271 18.7708 13.2396 18.9687C13.0417 19.1562 12.7708 19.2708 12.5 19.2708ZM16.1458 19.2708C15.875 19.2708 15.6042 19.1562 15.4062 18.9687C15.2187 18.7708 15.1042 18.5 15.1042 18.2291C15.1042 17.9583 15.2187 17.6875 15.4062 17.4895C15.7917 17.1041 16.5 17.1041 16.8854 17.4895C17.0729 17.6875 17.1875 17.9583 17.1875 18.2291C17.1875 18.5 17.0729 18.7708 16.8854 18.9687C16.6875 19.1562 16.4167 19.2708 16.1458 19.2708Z" fill="#181C4E"/>
</svg>
